<?xml version="1.0" encoding="UTF-8" standalone="no"?>
<!DOCTYPE svg PUBLIC "-//W3C//DTD SVG 1.1//EN" "http://www.w3.org/Graphics/SVG/1.1/DTD/svg11.dtd">
<svg version="1.1" xmlns="http://www.w3.org/2000/svg" xmlns:xlink="http://www.w3.org/1999/xlink" preserveAspectRatio="xMidYMid meet" viewBox="0 0 193.25 365.16" width="193.25" height="365.16"><defs><path d="M193.2 20.45C193.2 17.83 192.84 15.28 192.12 12.79C191.3 9.98 189.76 7.52 187.48 5.43C185.28 3.36 182.86 1.94 180.26 1.19C177.54 0.39 174.9 0 172.35 0C169.8 0 167.32 0.39 164.93 1.19C162.62 1.94 160.39 3.07 158.25 4.57C57.09 112.05 5.6 167.54 3.75 171.07C0.99 176.37 0 177.12 0 182.58C0 188.04 0.99 187.65 3.75 192.89C5.6 196.4 57.09 251.98 158.25 359.65C163.8 363.62 169.24 365.45 174.56 365.12C179.87 364.8 184.83 362.32 189.42 357.68C192.25 352.53 193.51 347.33 193.2 342.09C192.89 336.86 191.26 331.6 188.3 326.3C179.22 316.72 133.84 268.81 52.15 182.58C133.84 95.79 179.22 47.56 188.3 37.92C190.03 34.88 191.3 31.9 192.12 28.98C192.93 26.07 193.2 23.22 193.2 20.45Z" id="a5HLzrJ9kX"></path></defs><g><g><g><use xlink:href="#a5HLzrJ9kX" opacity="1" fill="#000000" fill-opacity="1"></use><g><use xlink:href="#a5HLzrJ9kX" opacity="1" fill-opacity="0" stroke="#000000" stroke-width="1" stroke-opacity="0"></use></g></g></g></g></svg>