<?xml version="1.0" encoding="UTF-8" standalone="no"?>
<!DOCTYPE svg PUBLIC "-//W3C//DTD SVG 1.1//EN" "http://www.w3.org/Graphics/SVG/1.1/DTD/svg11.dtd">
<svg version="1.1" xmlns="http://www.w3.org/2000/svg" xmlns:xlink="http://www.w3.org/1999/xlink" preserveAspectRatio="xMidYMid meet" viewBox="0 0 429 640" width="429" height="640"><defs><path d="M235.8 157.46C235.8 154.84 236.16 152.29 236.88 149.8C237.7 146.99 239.24 144.53 241.52 142.44C243.72 140.37 246.14 138.95 248.74 138.2C251.46 137.4 254.1 137.01 256.65 137.01C259.2 137.01 261.68 137.4 264.07 138.2C266.38 138.95 268.61 140.09 270.75 141.58C371.91 249.06 423.4 304.56 425.25 308.09C428.01 313.38 429 314.13 429 319.6C429 325.05 428.01 324.66 425.25 329.9C423.4 333.41 371.91 388.99 270.75 496.66C265.2 500.64 259.76 502.47 254.44 502.13C249.13 501.81 244.17 499.33 239.58 494.69C236.75 489.54 235.49 484.34 235.8 479.11C236.11 473.87 237.74 468.61 240.7 463.31C249.78 453.73 295.16 405.83 376.85 319.6C295.16 232.8 249.78 184.58 240.7 174.93C238.97 171.89 237.7 168.91 236.88 166C236.07 163.08 235.8 160.24 235.8 157.46Z" id="cNXBFfJT"></path><path d="M213.35 30.31C196.07 90.11 57.84 568.45 40.56 628.24C35.26 634.86 30.6 638.63 26.55 639.56C22.52 640.5 18.23 639.93 13.67 637.85C8.74 634.97 5.13 631.77 2.87 628.24C0.61 624.71 -0.31 619.33 0.09 612.1C17.47 552.05 156.52 71.6 173.9 11.55C176.96 6.17 180.41 2.76 184.28 1.33C188.15 -0.09 193.22 -0.37 199.5 0.47C205.02 3.13 209.06 6.82 211.63 11.55C214.21 16.29 214.78 22.54 213.35 30.31Z" id="a3zFQo3TVo"></path></defs><g><g><g><use xlink:href="#cNXBFfJT" opacity="1" fill="#000000" fill-opacity="1"></use><g><use xlink:href="#cNXBFfJT" opacity="1" fill-opacity="0" stroke="#000000" stroke-width="1" stroke-opacity="0"></use></g></g><g><use xlink:href="#a3zFQo3TVo" opacity="1" fill="#000000" fill-opacity="1"></use><g><use xlink:href="#a3zFQo3TVo" opacity="1" fill-opacity="0" stroke="#000000" stroke-width="1" stroke-opacity="0"></use></g></g></g></g></svg>