<?xml version="1.0" encoding="UTF-8" standalone="no"?>
<svg
   xmlns:dc="http://purl.org/dc/elements/1.1/"
   xmlns:cc="http://creativecommons.org/ns#"
   xmlns:rdf="http://www.w3.org/1999/02/22-rdf-syntax-ns#"
   xmlns:svg="http://www.w3.org/2000/svg"
   xmlns="http://www.w3.org/2000/svg"
   xmlns:sodipodi="http://sodipodi.sourceforge.net/DTD/sodipodi-0.dtd"
   xmlns:inkscape="http://www.inkscape.org/namespaces/inkscape"
   inkscape:version="1.0 (4035a4fb49, 2020-05-01)"
   sodipodi:docname="carleton-university-vector-logo.svg"
   id="svg28"
   version="1.1"
   height="98.372002"
   width="75.996529">
  <metadata
     id="metadata34">
    <rdf:RDF>
      <cc:Work
         rdf:about="">
        <dc:format>image/svg+xml</dc:format>
        <dc:type
           rdf:resource="http://purl.org/dc/dcmitype/StillImage" />
        <dc:title></dc:title>
      </cc:Work>
    </rdf:RDF>
  </metadata>
  <defs
     id="defs32">
    <clipPath
       id="clipPath38"
       clipPathUnits="userSpaceOnUse">
      <rect
         y="0"
         x="0.38131553"
         height="98.37941"
         width="77.788368"
         id="rect40"
         style="stroke-width:7.55906;stroke-linecap:round" />
    </clipPath>
  </defs>
  <sodipodi:namedview
     inkscape:current-layer="svg28"
     inkscape:window-maximized="1"
     inkscape:window-y="-8"
     inkscape:window-x="-8"
     inkscape:cy="49.237366"
     inkscape:cx="198.97079"
     inkscape:zoom="2.6225"
     fit-margin-bottom="0"
     fit-margin-right="0"
     fit-margin-left="0"
     fit-margin-top="0"
     showgrid="false"
     id="namedview30"
     inkscape:window-height="1387"
     inkscape:window-width="2560"
     inkscape:pageshadow="2"
     inkscape:pageopacity="0"
     guidetolerance="10"
     gridtolerance="10"
     objecttolerance="10"
     borderopacity="1"
     bordercolor="#666666"
     pagecolor="#ffffff" />
  <g
     transform="translate(-2.1731528)"
     clip-path="url(#clipPath38)"
     id="g26"
     fill="none">
    <path
       id="path2"
       fill="#ffffff"
       d="m 8.922,74.783 a 45.687,45.687 0 0 0 2.263,3.29 c 6.858,8.893 15.622,15.067 25.455,19.157 1.008,0.43 2.417,0.78 3.408,1.142 0.97,-0.353 2.326,-0.696 3.328,-1.113 l 0.665,-0.222 c 0.632,-0.294 1.212,-0.59 1.82,-0.887 a 66.063,66.063 0 0 0 9.047,-5.04 c 0.11,-0.075 0.215,-0.15 0.326,-0.228 a 63.56,63.56 0 0 0 2.363,-1.66 c 4.228,-3.118 7.878,-6.687 11.32,-11.146 a 47.275,47.275 0 0 0 2.604,-3.872 l 0.795,-1.35 c 0.046,-0.08 0.08,-0.165 0.124,-0.24 a 42.454,42.454 0 0 0 1.46,-2.938 c 0.26,-0.574 0.517,-1.15 0.748,-1.737 2.232,-5.537 3.328,-11.52 3.276,-17.833 0,0 -0.028,-33.293 -0.14,-45.01 C 77.052,4.886 76.272,4.698 75.511,4.502 74.253,4.132 72.601,3.754 70.711,3.38 62.962,1.758 54.35,0.738 46.46,0.28 L 46.417,0.272 c 0,0 -4.184,-0.296 -7.79,-0.255 L 38.634,0 C 27.157,-0.05 13.057,2.004 2.315,5.09 2.202,16.81 2.175,50.102 2.175,50.102 2.106,58.33 3.97,65.992 7.78,72.85 c 0.003,0.002 0.577,1.054 1.142,1.933 z" />
    <path
       id="path4"
       fill="#000000"
       d="m 154.898,21.263 h -2.476 c -0.32,-12.14 -5.202,-17.75 -16.51,-17.75 -16.264,0 -18.495,14.117 -18.495,27.902 0,11.64 1.322,27.99 17.09,27.99 11.473,0 17.517,-7.898 17.83,-19.65 h 2.476 V 56.1 c -7.428,4.046 -13.87,5.863 -20.556,5.863 -17.916,0 -27.74,-12.798 -27.74,-30.548 0,-17.585 10.98,-30.463 28.896,-30.463 6.522,0 13.454,1.98 19.483,4.787 v 15.523 h 0.002 z m 18.737,15.85 c 3.385,-0.824 5.943,-1.57 9.082,-2.643 v -3.468 c 0,-5.695 -0.993,-9.41 -6.44,-9.41 -4.125,0 -6.65,1.236 -6.65,6.686 0,3.22 -1.236,4.724 -4.127,4.724 -2.143,0 -4.083,-1.01 -4.083,-3.487 0,-7.924 8.01,-9.99 14.61,-9.99 12.636,0 15.11,5.203 15.11,12.055 v 20.97 c 0,6.276 1.898,6.36 6.522,6.36 v 2.06 h -6.275 c -4.624,0 -7.844,-0.41 -9.165,-5.363 -3.218,4.95 -7.266,6.356 -12.713,6.356 -8.585,0 -11.31,-4.46 -11.31,-11.974 0,-6.85 3.546,-10.073 10.483,-11.723 l 4.955,-1.154 z m 0.495,2.228 c -4.952,1.488 -6.52,3.303 -6.52,10.57 0,5.036 0.907,9.494 5.364,9.494 7.183,0 9.74,-9.082 9.74,-14.697 V 36.78 l -8.584,2.56 z" />
    <path
       id="path6"
       fill="#000000"
       d="m 203.51,22.583 h -7.1 V 20.52 h 15.52 v 9.493 h 0.166 c 1.732,-4.79 5.282,-10.485 11.556,-10.485 4.87,0 7.515,3.135 7.515,7.926 0,3.305 -1.32,5.53 -4.293,5.53 -2.228,0 -4.126,-1.65 -4.126,-4.208 0,-1.156 0.41,-3.14 0.41,-4.21 0,-1.157 -0.828,-2.066 -2.067,-2.066 -4.292,0 -9.162,9.41 -9.162,18.328 v 18.085 h 6.857 v 2.06 h -22.26 v -2.06 h 6.982 v -36.33 h 0.004 z" />
    <path
       id="path8"
       d="m 228.74,1.946 h 15.52 v 56.967 h 7.1 v 2.06 h -22.617 v -2.06 h 7.096 V 4.01 h -7.097 V 1.945"
       fill="#000000" />
    <path
       id="path10"
       fill="#000000"
       d="m 258.852,38.187 v 0.66 c 0,11.557 1.568,20.56 12.215,20.56 7.51,0 11.31,-4.624 13.46,-10.57 l 1.812,0.66 c -3.55,9.58 -9.164,12.47 -18.247,12.47 -12.384,0 -18.656,-9.578 -18.656,-21.22 0,-11.143 7.18,-21.217 19.235,-21.217 10.567,0 17.748,7.594 17.748,18.66 h -27.568 v -0.003 z m 17.663,-2.56 c 0,-5.944 -0.33,-14.034 -8.745,-14.034 -7.105,0 -8.918,8.916 -8.918,14.033 h 17.663 z M 286.524,20.52 h 5.698 V 9.54 h 8.42 v 10.98 h 9.162 v 2.063 h -9.163 v 28.73 c 0,4.874 0.99,7.183 4.375,7.183 3.137,0 4.463,-2.31 5.778,-4.955 l 1.898,0.83 -0.738,1.487 c -1.652,2.97 -4.463,5.613 -10.402,5.613 -8.59,0 -9.328,-4.87 -9.328,-10.155 V 22.583 h -5.698 V 20.52 Z" />
    <path
       id="path12"
       fill="#000000"
       d="m 331.028,19.528 c 14.692,0 19.235,12.88 19.235,21.218 0,8.34 -4.543,21.22 -19.235,21.22 -14.7,0 -19.24,-12.88 -19.24,-21.22 0,-8.34 4.542,-21.218 19.24,-21.218 z m 0,40.374 c 9.74,0 9.822,-10.49 9.822,-19.156 0,-8.668 -0.08,-19.153 -9.822,-19.153 -9.743,0 -9.826,10.483 -9.826,19.153 0,8.67 0.083,19.156 9.826,19.156 z" />
    <path
       id="path14"
       fill="#000000"
       d="m 357.298,58.913 v -36.33 h -7.096 V 20.52 h 15.52 v 7.758 h 0.165 c 2.556,-5.615 7.51,-8.75 14.283,-8.75 8.09,0 12.13,3.387 12.13,11.642 v 27.743 h 6.526 v 2.06 H 377.36 v -2.06 h 6.52 v -27.33 c 0,-4.542 -0.823,-9.083 -6.602,-9.083 -7.68,0 -11.556,7.265 -11.556,14.94 v 21.473 h 6.52 v 2.06 h -22.04 v -2.06 z m -226.5,31.113 c 0,4.276 -2.872,7.448 -8.387,7.448 -5.545,0 -8.414,-3.172 -8.414,-7.448 V 78.898 h 4.39 v 10.976 c 0,2.224 1.69,3.915 4.025,3.915 2.307,0 3.997,-1.69 3.997,-3.916 V 78.898 h 4.39 v 11.128 z m 16.715,-11.128 h 5.965 l 8.472,12.59 h 0.057 v -12.59 h 4.39 V 97.01 h -5.74 l -8.698,-12.895 h -0.056 V 97.01 h -4.39 V 78.9 M 183.2,78.898 h 4.387 V 97.01 H 183.2 m 18.94,-18.112 h 5.006 l 4.926,11.872 h 0.054 l 5.01,-11.872 h 4.705 l -8.218,18.113 h -3.52 m 24.814,-18.113 h 13.542 v 3.685 h -9.147 v 3.376 h 8.64 v 3.683 h -8.64 v 3.685 h 9.654 v 3.68 h -14.05 V 78.9 m 30.51,-0.002 h 7.715 c 4.082,0 7.512,1.278 7.512,5.502 0,2.53 -1.49,4.5 -4.304,4.963 l 5.065,7.648 h -5.26 l -4.17,-7.238 h -2.166 v 7.24 h -4.39 V 78.897 Z m 4.39,7.498 h 2.588 c 1.6,0 3.685,-0.05 3.685,-2.022 0,-1.817 -1.805,-2.098 -3.405,-2.098 h -2.87 v 4.12 z m 37.627,-3.074 c -0.704,-0.815 -2.11,-1.198 -3.18,-1.198 -1.235,0 -2.96,0.51 -2.96,1.863 0,3.3 9.182,1.176 9.182,7.524 0,4.042 -3.576,5.962 -7.685,5.962 -2.56,0 -4.81,-0.692 -6.696,-2.276 l 3.126,-3.126 c 0.896,1.078 2.36,1.715 3.827,1.715 1.434,0 3.034,-0.61 3.034,-1.894 0,-3.323 -9.34,-1.53 -9.34,-7.568 0,-3.863 3.69,-5.885 7.6,-5.885 2.25,0 4.415,0.535 6.107,1.89 l -3.014,2.995 z m 19.331,-4.424 h 4.393 V 97.01 h -4.393 M 351.54,82.43 h -5.683 v -3.532 h 15.76 v 3.532 h -5.684 v 14.58 h -4.392 V 82.43 m 29.576,6.857 -7.484,-10.39 h 5.46 l 4.22,6.78 4.476,-6.78 h 5.208 l -7.49,10.39 v 7.724 h -4.39 v -7.723" />
    <path
       id="path16"
       fill="#ffffff"
       d="m 40.048,98.37 3.99,-1.333 c 10.9,-5.057 18.247,-10.372 24.875,-18.963 6.278,-8.326 8.694,-16.822 9.01,-27.972 0,-0.002 -0.15,-36 -0.216,-44.772 C 73.847,3.122 50.6,-0.002 40.043,0.09" />
    <path
       id="path18"
       fill="#000000"
       d="m 65.107,50.415 -0.953,-0.313 -0.206,-0.995 -1.637,-0.64 c -4.46,-1.55 -9.032,-2.8 -13.75,-3.25 -3.043,-0.29 -6.12,-0.063 -8.458,1.442 -2.328,-1.506 -5.404,-1.732 -8.445,-1.443 -4.722,0.45 -9.303,1.7 -13.768,3.25 l -1.64,0.64 -0.21,0.995 -0.955,0.313 -5.345,22.314 c 3.012,-0.556 9.217,-1.456 12.656,-1.813 4.278,-0.48 7.92,-0.658 12.752,-0.498 -0.022,0.196 -0.078,0.353 0.043,0.548 0.56,0.535 1.688,0.485 2.588,0.565 0.937,0.04 1.352,0.05 2.272,0.06 0.922,0.008 1.34,-0.023 2.274,-0.06 0.902,-0.08 2.03,-0.03 2.59,-0.565 0.12,-0.195 0.066,-0.352 0.045,-0.548 4.83,-0.16 8.475,0.018 12.75,0.498 3.436,0.357 9.636,1.257 12.65,1.813 z M 39.454,67.21 c -2.487,-1.334 -5.59,-1.53 -8.61,-1.36 -6.457,0.41 -12.26,1.835 -18.34,3.902 l 4.653,-20.18 c 4.667,-1.776 9.57,-3.187 14.645,-3.615 3.322,-0.205 6.183,0.217 7.826,1.397 l -0.174,19.855 z m 9.826,-1.36 c -3.02,-0.17 -6.123,0.026 -8.617,1.36 l -0.09,-19.856 c 1.647,-1.18 4.51,-1.6 7.83,-1.397 5.073,0.428 9.973,1.84 14.634,3.615 l 4.567,20.18 C 61.537,67.685 55.737,66.262 49.28,65.85 Z" />
    <path
       id="path20"
       fill="#000000"
       d="m 41.496,0.054 5.3,10.655 0.015,0.036 c 0.02,0.045 0.092,0.19 0.28,0.52 0.18,-0.068 0.35,-0.138 0.52,-0.207 l 8.88,-5.05 c 0,0 -3.83,18.805 -4.205,20.638 1.698,-1.783 8.572,-9.018 8.572,-9.018 0,0 2.923,5.56 3.608,6.86 l 0.942,-0.157 -0.468,0.078 10.534,-2.895 -3.352,11.822 c 0,0 -0.046,0.078 -0.063,0.102 h 0.007 c 0,0 -0.04,0.12 -0.043,0.138 l 0.033,-0.045 -0.4,1.206 c -0.05,0.15 -0.166,0.527 -0.198,0.623 l 5.392,2.783 -11.21,9.934 c 0.05,0.235 0.108,0.516 0.123,0.58 l 0.924,0.303 5.62,23.89 c 3.814,-6.85 5.677,-14.52 5.61,-22.746 0,0 -0.03,-33.294 -0.14,-45.01 C 67.048,2.006 52.967,0.392 41.496,0.053 M 40.048,98.37 c 0.993,-0.36 2.4,-0.713 3.41,-1.142 9.835,-4.09 18.6,-10.263 25.455,-19.154 a 46.421,46.421 0 0 0 2.26,-3.29 L 70.017,74.57 C 66.92,74 60.727,73.113 57.5,72.774 c -0.354,-0.04 -0.7,-0.072 -1.04,-0.11 -0.073,-0.005 -0.143,-0.014 -0.212,-0.018 -0.346,-0.04 -0.687,-0.072 -1.024,-0.103 h -0.013 c -0.347,-0.03 -0.69,-0.058 -1.03,-0.084 -0.028,0 -0.056,-0.006 -0.082,-0.006 -0.35,-0.03 -0.696,-0.05 -1.04,-0.07 a 79.516,79.516 0 0 0 -6.784,-0.13 l -0.065,0.068 c -0.956,0.908 -2.282,0.985 -3.25,1.04 l -0.54,0.04 -0.548,0.026 -1.837,0.04 -2.333,-0.06 -0.563,-0.043 c -0.968,-0.054 -2.297,-0.132 -3.25,-1.043 0,0 -0.036,-0.035 -0.062,-0.063 a 82.032,82.032 0 0 0 -5.778,0.066 L 26.742,72.4 c -0.006,0 -0.015,0.005 -0.023,0.005 -0.213,0.013 -0.424,0.026 -0.64,0.043 -0.013,0 -0.028,0.004 -0.043,0.004 -0.21,0.018 -0.413,0.035 -0.626,0.05 -0.032,0 -0.064,0.005 -0.1,0.01 -0.19,0.016 -0.382,0.03 -0.577,0.045 -0.063,0.007 -0.126,0.012 -0.187,0.02 -0.17,0.018 -0.337,0.03 -0.51,0.046 -0.108,0.01 -0.22,0.022 -0.327,0.035 l -0.386,0.04 c -0.24,0.026 -0.487,0.054 -0.735,0.076 -3.22,0.34 -9.416,1.226 -12.51,1.796 L 8.92,74.78 a 45.722,45.722 0 0 0 2.263,3.292 c 6.858,8.89 15.622,15.065 25.454,19.154 1.008,0.43 2.417,0.78 3.408,1.142 M 38.633,0 C 27.157,-0.05 13.057,2.004 2.315,5.09 2.202,16.81 2.175,50.102 2.175,50.102 2.106,58.33 3.97,65.992 7.78,72.85 L 13.5,48.96 c 0,0 0.804,-0.262 0.926,-0.303 0.01,-0.053 0.06,-0.285 0.107,-0.503 L 3.243,38.146 c 0,0 4.755,-2.453 5.392,-2.783 -0.03,-0.096 -0.16,-0.498 -0.224,-0.704 L 8.108,33.739 8.078,33.699 4.625,21.512 15.16,24.41 14.704,24.333 c 0.092,0.017 0.818,0.134 0.93,0.156 0.683,-1.303 3.607,-6.862 3.607,-6.862 0,0 6.87,7.226 8.57,9.018 L 23.606,6.01 c 0,0 8.645,4.912 8.882,5.05 0.17,0.068 0.34,0.138 0.517,0.205 0.195,-0.345 0.263,-0.48 0.278,-0.51 L 33.3,10.713 38.01,1.243 38.63,0" />
    <path
       id="path22"
       fill="#aa1f23"
       d="m 10.99,35.735 c -0.038,0.56 -0.562,1.195 -0.862,1.417 l -2.893,1.49 9.374,8.312 0.627,-0.243 0.033,-0.012 c 5.395,-1.874 9.91,-2.94 14.206,-3.346 3.533,-0.337 6.365,0.048 8.624,1.165 2.265,-1.117 5.102,-1.502 8.633,-1.165 4.293,0.41 8.802,1.472 14.19,3.346 l 0.03,0.013 0.56,0.22 9.346,-8.287 -2.893,-1.49 c -0.3,-0.225 -0.826,-0.86 -0.863,-1.418 -0.008,-0.165 -0.03,-0.148 -0.045,-0.1 0,-0.015 0.003,-0.028 0.005,-0.046 0.055,-0.33 0,-0.262 0.302,-1.157 -0.024,0.024 0.55,-1.703 0.566,-1.716 l 2.252,-7.94 -6.644,1.827 c -0.362,0.024 -0.697,0.15 -1.055,0.203 -0.624,0.086 -1.126,0.17 -1.496,-0.237 l -2.666,-5.072 -7.585,7.98 -0.603,0.596 c -1.276,0.967 -3.08,-0.076 -2.29,-2.835 l 3.416,-16.78 -4.654,2.647 c -0.627,0.26 -1.17,0.473 -2.03,0.745 -0.284,0.09 -0.57,-0.093 -0.76,-0.274 -0.33,-0.543 -0.892,-1.467 -1.083,-1.89 l -4.69,-9.43 -4.693,9.43 c -0.19,0.423 -0.747,1.35 -1.078,1.89 -0.19,0.18 -0.476,0.363 -0.76,0.274 a 22.02,22.02 0 0 1 -2.03,-0.745 l -4.653,-2.648 3.415,16.777 c 0.787,2.76 -1.015,3.802 -2.29,2.835 l -0.6,-0.596 -7.582,-7.983 -2.665,5.072 c -0.373,0.41 -0.875,0.324 -1.495,0.237 -0.358,-0.05 -0.69,-0.178 -1.054,-0.202 l -6.647,-1.826 2.25,7.94 c 0.015,0.014 0.59,1.74 0.565,1.716 0.3,0.896 0.246,0.827 0.3,1.157 l 0.007,0.037 c -0.015,-0.04 -0.035,-0.046 -0.044,0.11 z m 34.76,-22.23 c -0.19,-0.2 -0.24,-0.346 0,0 z m -11.4,0 c 0.24,-0.344 0.19,-0.2 0,0 z" />
    <path
       id="path24"
       fill="#000000"
       d="m 36.9,52.285 c -2.654,-1.126 -5.733,-0.778 -8.535,-0.294 -3.31,0.575 -4.848,0.993 -8.493,2.214 l 0.204,-0.908 c 0,0 4.59,-1.79 10.794,-2.518 0,0 3.565,-0.448 6.03,0.644 v 0.863 z m 0,4.011 c -2.654,-1.122 -5.733,-0.776 -8.535,-0.294 -3.31,0.578 -5.682,0.944 -9.437,2.19 l 0.205,-0.907 c 0,0 5.534,-1.765 11.737,-2.49 0,0 3.565,-0.454 6.03,0.642 v 0.86 z m 0,4.074 c -2.654,-1.127 -5.733,-0.78 -8.535,-0.298 -3.31,0.574 -6.674,1.46 -10.476,2.735 l 0.203,-0.91 c 0,0 6.574,-2.308 12.777,-3.034 0,0 3.565,-0.45 6.03,0.64 v 0.867 z m 6.202,-8.085 c 2.655,-1.126 5.733,-0.778 8.535,-0.294 3.31,0.575 4.848,0.993 8.496,2.214 l -0.205,-0.908 c 0,0 -4.59,-1.79 -10.793,-2.518 0,0 -3.565,-0.448 -6.03,0.644 v 0.863 H 43.1 Z m 0,4.011 c 2.655,-1.122 5.733,-0.776 8.535,-0.294 3.31,0.578 5.683,0.944 9.44,2.19 L 60.87,57.287 c 0,0 -5.535,-1.765 -11.735,-2.49 0,0 -3.565,-0.454 -6.03,0.642 v 0.856 H 43.1 Z m 0,4.074 c 2.655,-1.127 5.733,-0.78 8.535,-0.298 3.31,0.574 6.676,1.46 10.476,2.735 l -0.202,-0.91 c 0,0 -6.573,-2.308 -12.775,-3.034 0,0 -3.565,-0.45 -6.03,0.64 V 60.37 H 43.1 Z" />
  </g>
</svg>
