<?xml version="1.0" encoding="utf-8"?>
<!-- Generator: Adobe Illustrator 19.2.1, SVG Export Plug-In . SVG Version: 6.00 Build 0)  -->
<svg version="1.1" id="layer" xmlns="http://www.w3.org/2000/svg" xmlns:xlink="http://www.w3.org/1999/xlink" x="0px" y="0px"
	 viewBox="0 0 652 652" style="enable-background:new 0 0 652 652;" xml:space="preserve">
<path d="M597.5,224.7c-1.4,1.3-2.4,2.9-3.2,4.7c-0.8,1.8-1.2,3.7-1.2,5.8s0.4,4.1,1.2,5.9c0.8,1.8,1.9,3.4,3.2,4.7
	c1.4,1.3,2.9,2.4,4.8,3.1c1.8,0.8,3.7,1.1,5.8,1.1c2.1,0,3.9-0.4,5.8-1.1c1.8-0.8,3.4-1.8,4.7-3.1c1.3-1.3,2.4-2.9,3.2-4.7
	c0.8-1.8,1.2-3.8,1.2-5.9s-0.4-4-1.2-5.8c-0.8-1.8-1.9-3.4-3.2-4.7c-1.4-1.3-2.9-2.4-4.7-3.1c-1.8-0.8-3.7-1.1-5.8-1.1
	s-4,0.4-5.8,1.1C600.5,222.3,598.9,223.4,597.5,224.7z M599.3,244.3c-1.1-1.2-2-2.5-2.6-4c-0.6-1.5-1-3.2-1-5c0-1.8,0.3-3.4,1-4.9
	c0.6-1.5,1.5-2.9,2.6-4c1.1-1.1,2.4-2,3.9-2.7c1.5-0.7,3.1-1,4.9-1c1.8,0,3.3,0.3,4.8,1c1.5,0.7,2.8,1.5,3.8,2.7
	c1.1,1.1,2,2.4,2.6,4s1,3.2,1,4.9c0,1.8-0.3,3.5-1,5c-0.6,1.5-1.5,2.9-2.6,4c-1.1,1.1-2.4,2-3.8,2.7c-1.5,0.7-3,1-4.8,1
	c-1.7,0-3.4-0.3-4.9-1C601.7,246.3,600.4,245.5,599.3,244.3z"/>
<path d="M613.6,227.8c-1-0.9-2.5-1.2-4.6-1.2h-6.7v17.3h2.7v-7.5h2.9l4.7,7.4h2.9l-4.9-7.6c1.3-0.1,2.4-0.6,3.2-1.3
	c0.9-0.8,1.3-1.9,1.3-3.4C615.1,229.9,614.5,228.6,613.6,227.8L613.6,227.8L613.6,227.8z M609.5,234.2c-0.5,0-1.1,0-1.7,0h-2.8v-5.5
	h3.6c0.5,0,0.9,0,1.4,0.1s0.9,0.2,1.2,0.4c0.4,0.2,0.7,0.5,0.9,0.8c0.2,0.3,0.3,0.8,0.3,1.4c0,0.7-0.1,1.2-0.4,1.6
	c-0.2,0.4-0.6,0.7-1,0.9C610.5,234,610.1,234.1,609.5,234.2L609.5,234.2L609.5,234.2z M69.5,362.3l41.2-123.4h63.1
	c11.7,0,20.3,1,25.8,3c5.5,2,9.3,5.8,11.2,11.2c2,5.5,1.6,12.1-1,20c-2.3,6.8-5.7,12.7-10.3,17.7s-9.9,9-16,12.1
	c-3.9,2-8.8,3.6-14.9,4.9c4,1.5,6.8,3.1,8.4,4.6c3.4,3,5.8,9.1,6.6,14.2l6.4,35.7h-42.9l-7.6-37.7c-1-4.9-2.2-8.1-3.7-9.5
	c-2.1-1.9-4.9-2.9-8.3-2.9h-3.4l-16.7,50.1L69.5,362.3C69.5,362.3,69.5,362.3,69.5,362.3z M132.1,288.9h16c7.2,0,13.2-1.2,18-5.5
	c2.3-2.1,3.9-4.5,4.8-7.2c1.3-4,1.1-7-0.7-9.2c-1.8-2.2-6.2-3.2-13.1-3.2h-16.6C140.4,263.8,132.1,288.9,132.1,288.9z M215,300.8
	c6.5-19.5,16.9-34.6,31.2-45.5c14.3-10.8,31.1-16.3,50.2-16.3c19.1,0,33,5.3,40.1,16c7.1,10.7,7.4,25.6,1,44.8
	c-4.6,14-10.8,25.4-18.3,34.3c-7.6,8.9-16.6,15.9-27.1,20.8c-10.5,4.9-22.2,7.4-35.3,7.4c-13.1,0-23.6-2.2-30.9-6.4
	c-7.3-4.3-12.1-11-14.4-20.4c-2.3-9.3-1.2-20.9,3.4-34.8L215,300.8L215,300.8z M251.4,300.9c-4,12-4.7,20.7-2,26
	c2.7,5.2,7.8,7.9,15.4,7.9c7.6,0,14.7-2.6,20.8-7.7c6-5.1,11.2-14.4,15.6-27.8c3.7-11.2,4.2-19.4,1.4-24.6s-8-7.8-15.6-7.8
	c-7.6,0-14.1,2.7-20.3,7.9C260.5,280,255.4,288.8,251.4,300.9z M343.4,320.5l35.6-2.2c-1.2,5.7-1.1,10,0.2,13
	c2.2,4.8,6.8,7.2,13.7,7.2c5.2,0,9.6-1.2,13.3-3.7c3.6-2.4,6-5.3,7.1-8.6c1-3,0.6-5.8-1.3-8.3c-1.9-2.4-7.3-4.7-16.4-6.9
	c-14.8-3.6-24.7-8.4-29.5-14.4c-4.9-6-5.8-13.7-2.7-22.9c2-6.1,5.8-11.9,11.1-17.3c5.3-5.4,12.1-9.7,20.2-12.8
	c8.1-3.1,18.3-4.6,30.7-4.6c15.1,0,25.7,2.8,31.8,8.5c6,5.7,7.8,14.6,5.1,26.9l-35.2,2c0.9-5.3,0.2-9.2-1.9-11.7
	c-2.1-2.4-5.8-3.6-10.9-3.6c-4.3,0-7.8,0.9-10.5,2.7c-2.8,1.8-4.6,4-5.5,6.6c-0.6,1.9-0.3,3.6,1,5.1c1.2,1.6,4.8,3,10.8,4.4
	c14.8,3.5,25.1,6.9,30.9,10.5c5.8,3.5,9.3,8,10.7,13.2c1.4,5.2,1,11.1-1.2,17.6c-2.6,7.6-7,14.6-13.3,21.1
	c-6.4,6.4-13.9,11.3-22.5,14.6c-8.7,3.3-18.7,4.9-30.2,4.9c-20.2,0-32.8-3.9-37.9-11.7C341.5,342.5,340.4,332.6,343.4,320.5
	L343.4,320.5L343.4,320.5z M462.1,320.5l35.6-2.2c-1.2,5.7-1.1,10,0.2,13c2.2,4.8,6.8,7.2,13.7,7.2c5.2,0,9.7-1.2,13.3-3.7
	s6-5.3,7.1-8.6c1-3,0.6-5.8-1.3-8.3c-1.9-2.4-7.3-4.7-16.4-6.9c-14.8-3.6-24.7-8.4-29.5-14.4c-4.9-6-5.8-13.7-2.7-22.9
	c2-6.1,5.8-11.9,11.1-17.3c5.3-5.4,12.1-9.7,20.2-12.8c8.1-3.1,18.3-4.6,30.7-4.6c15.1,0,25.7,2.8,31.8,8.5c6,5.7,7.8,14.6,5.1,26.9
	l-35.2,2c0.9-5.3,0.2-9.2-1.9-11.7c-2.1-2.4-5.8-3.6-10.9-3.6c-4.3,0-7.8,0.9-10.5,2.7c-2.8,1.8-4.6,4-5.5,6.6
	c-0.6,1.9-0.3,3.6,1,5.1c1.2,1.6,4.8,3,10.8,4.4c14.8,3.5,25.1,6.9,30.9,10.5c5.8,3.5,9.3,8,10.7,13.2c1.4,5.2,1,11.1-1.2,17.6
	c-2.6,7.6-7,14.6-13.3,21.1c-6.4,6.4-13.9,11.3-22.5,14.6c-8.7,3.3-18.7,4.9-30.2,4.9c-20.2,0-32.8-3.9-37.9-11.7
	C460.2,342.5,459.1,332.6,462.1,320.5L462.1,320.5L462.1,320.5z M23.9,405.3c-0.8-0.5-1.5-2.4,0-3.4c0.4-0.3,0.9-0.6,1.8-1.1
	c3.2-1.8,11.2-5.2,41.7-8.3c39.9-4,383.7-6.6,460.6-4.3c21.5,0.6,34.1,0.9,41.7,1.1c8,0.2,10.4,0.2,11.6,0.5
	c1.2,0.2,1.6,2.1-0.7,2.6c-0.3,0.1-0.6,0.1-0.9,0.1l0,0c-3.4,0.2-130.4,4.6-259.5,8.9c-13.3,0.5-26.8,0.9-40,1.3
	c-75.9,2.4-148.6,4.7-191.3,8.9c-22.8,2.2-34,5.6-38.4,8.7c0,0-1,0.7-2,0.1C47.3,419.7,24.2,405.7,23.9,405.3L23.9,405.3L23.9,405.3
	z"/>
</svg>
